HIERARCHY
ROOT Hips
{
	OFFSET 0.00 0.00 0.00
	CHANNELS 6 Xposition Yposition Zposition Zrotation Xrotation Yrotation
	JOINT Spine
	{
		OFFSET 0.00 10.00 0.00
		CHANNELS 3 Zrotation Xrotation Yrotation
		JOINT Spine1
		{
			OFFSET 0.00 10.00 0.00
			CHANNELS 3 Zrotation Xrotation Yrotation
			JOINT Spine2
			{
				OFFSET 0.00 10.00 0.00
				CHANNELS 3 Zrotation Xrotation Yrotation
				JOINT Neck
				{
					OFFSET 0.00 10.00 0.00
					CHANNELS 3 Zrotation Xrotation Yrotation
					JOINT Head
					{
						OFFSET 0.00 10.00 0.00
						CHANNELS 3 Zrotation Xrotation Yrotation
						End Site
						{
							OFFSET 0.00 10.00 0.00
						}
					}
				}
				JOINT LeftArm
				{
					OFFSET 15.00 0.00 0.00
					CHANNELS 3 Zrotation Xrotation Yrotation
					JOINT LeftForeArm
					{
						OFFSET 25.00 0.00 0.00
						CHANNELS 3 Zrotation Xrotation Yrotation
						JOINT LeftHand
						{
							OFFSET 20.00 0.00 0.00
							CHANNELS 3 Zrotation Xrotation Yrotation
							End Site
							{
								OFFSET 10.00 0.00 0.00
							}
						}
					}
				}
				JOINT RightArm
				{
					OFFSET -15.00 0.00 0.00
					CHANNELS 3 Zrotation Xrotation Yrotation
					JOINT RightForeArm
					{
						OFFSET -25.00 0.00 0.00
						CHANNELS 3 Zrotation Xrotation Yrotation
						JOINT RightHand
						{
							OFFSET -20.00 0.00 0.00
							CHANNELS 3 Zrotation Xrotation Yrotation
							End Site
							{
								OFFSET -10.00 0.00 0.00
							}
						}
					}
				}
			}
		}
	}
	JOINT LeftUpLeg
	{
		OFFSET 8.00 -15.00 0.00
		CHANNELS 3 Zrotation Xrotation Yrotation
		JOINT LeftLeg
		{
			OFFSET 0.00 -35.00 0.00
			CHANNELS 3 Zrotation Xrotation Yrotation
			JOINT LeftFoot
			{
				OFFSET 0.00 -35.00 0.00
				CHANNELS 3 Zrotation Xrotation Yrotation
				JOINT LeftToeBase
				{
					OFFSET 0.00 -5.00 10.00
					CHANNELS 3 Zrotation Xrotation Yrotation
					End Site
					{
						OFFSET 0.00 -5.00 10.00
					}
				}
			}
		}
	}
	JOINT RightUpLeg
	{
		OFFSET -8.00 -15.00 0.00
		CHANNELS 3 Zrotation Xrotation Yrotation
		JOINT RightLeg
		{
			OFFSET 0.00 -35.00 0.00
			CHANNELS 3 Zrotation Xrotation Yrotation
			JOINT RightFoot
			{
				OFFSET 0.00 -35.00 0.00
				CHANNELS 3 Zrotation Xrotation Yrotation
				JOINT RightToeBase
				{
					OFFSET 0.00 -5.00 10.00
					CHANNELS 3 Zrotation Xrotation Yrotation
					End Site
					{
						OFFSET 0.00 -5.00 10.00
					}
				}
			}
		}
	}
}
MOTION
Frames: 17
Frame Time: 0.034483
-0.0762 0.1648 -0.0913 -7.8246 0.3457 5.0523 5.2648 7.3302 0.3375 5.2648 7.3302 0.3375 5.2648 7.3302 0.3375 -6.7557 25.4756 5.4794 0.5972 15.8519 -16.2405 -60.0622 -17.6811 -30.1180 166.6900 158.1094 -62.2075 139.7505 77.8348 -32.9630 73.1521 3.4390 -4.6335 46.4444 -9.4287 21.7596 177.9885 -177.1980 71.3432 0.4477 -7.5323 -0.0295 6.1714 19.3226 1.0516 -25.5880 18.8617 -4.3203 0.6209 35.8862 -1.9172 -16.2547 4.1005 -0.5858 -18.9081 20.9842 -3.5327 -26.8720 -32.1536 7.8771 1.4004 3.0599 -49.1763
-0.0761 0.1647 -0.0927 -7.8712 0.3134 4.5535 5.2386 8.3643 0.3833 5.2386 8.3643 0.3833 5.2386 8.3643 0.3833 -6.5646 26.1536 5.2604 0.5841 15.9557 -16.1753 -60.8386 -16.4360 -27.6378 -158.2807 -132.8466 -47.4595 153.0141 90.0371 -27.0028 72.9224 5.4281 -7.3416 48.8409 -10.7226 23.3558 -177.8731 176.8093 67.3661 0.4756 -7.6323 -0.0317 6.0807 19.4648 1.0439 -25.7263 18.9752 -4.3710 1.3656 37.2671 -4.0485 -16.2264 4.0216 -0.5735 -19.7400 20.5968 -3.6215 -27.7842 -31.9025 8.0873 1.3419 3.0055 -48.1134
-0.0768 0.1779 -0.0748 -8.5269 0.2777 3.7237 5.2099 8.7893 0.4007 5.2099 8.7893 0.4007 5.2099 8.7893 0.4007 -6.3293 26.7513 5.0177 0.5063 15.3650 -15.7342 -60.1476 -16.3563 -27.8760 -143.4501 -109.6503 -50.2130 150.4087 92.7221 -30.9641 72.2611 10.9971 -15.0237 52.2444 -3.5037 7.1379 -178.6782 177.7135 60.0589 0.4058 -8.7449 -0.0310 6.0406 14.8156 0.7861 -25.7136 12.4297 -2.8475 2.0398 34.1971 -6.6244 -16.1550 4.1782 -0.5932 -20.1308 19.4125 -3.4781 -28.6102 -31.4083 8.2016 1.8185 4.1932 -46.8762
-0.0774 0.1848 -0.0662 -8.8467 0.2497 3.2269 5.1141 8.9763 0.4017 5.1141 8.9763 0.4017 5.1141 8.9763 0.4017 -6.0813 26.8765 4.8101 0.4389 15.1267 -15.3515 -59.6600 -15.9386 -27.4404 -125.6065 -90.9172 -55.1427 146.9080 98.0649 -37.7768 72.3280 10.5424 -14.3881 52.5217 -4.6076 9.3233 -178.2569 177.0727 61.5370 0.3317 -10.6211 -0.0308 6.1722 9.0797 0.4906 -25.4830 6.8173 -1.5433 1.3823 26.8739 -5.7813 -15.9164 4.0805 -0.5707 -20.2959 16.3372 -2.9435 -27.3723 -33.4432 8.3685 0.5523 1.4086 -42.8174
-0.0764 0.1816 -0.0661 -9.0446 0.2408 3.0438 4.9606 9.4178 0.4089 4.9606 9.4178 0.4089 4.9606 9.4178 0.4089 -5.9088 26.0355 4.7445 0.5498 13.2376 -15.8574 -59.3455 -14.1171 -24.5221 -115.6566 -77.7769 -53.8032 152.2690 112.1722 -40.3202 71.5261 9.9546 -13.7891 55.3103 -7.0025 13.3196 -173.2406 168.9187 62.6647 0.3580 -10.4825 -0.0328 5.7888 11.0987 0.5629 -25.3099 10.4501 -2.3526 1.0320 27.1324 -4.2750 -15.6635 3.4750 -0.4781 -20.6742 14.6609 -2.6883 -26.7416 -34.3316 8.3987 -0.0498 -0.1312 -41.5408
-0.0756 0.1767 -0.0708 -8.9577 0.2443 3.1176 4.5578 10.0522 0.4011 4.5578 10.0522 0.4011 4.5578 10.0522 0.4011 -5.2973 25.4691 4.2964 0.6328 12.4525 -16.3332 -59.7747 -14.4266 -24.8384 -101.1535 -63.1518 -53.6127 173.3264 167.3765 -55.5897 71.2077 2.5284 -3.5306 57.1361 -18.2180 32.8158 -164.8042 153.7705 59.5862 0.6064 -10.4229 -0.0553 5.1055 10.2708 0.4591 -25.8752 10.6436 -2.4517 0.3726 22.9616 -1.8346 -15.1206 2.5760 -0.3420 -20.6940 12.1299 -2.2227 -25.4694 -36.9020 8.6242 -2.2044 -5.8355 -41.3614
-0.0740 0.1538 -0.1125 -7.6968 0.2697 4.0072 3.4865 9.1129 0.2779 3.4865 9.1129 0.2779 3.4865 9.1129 0.2779 -4.7099 26.1649 3.7727 1.0468 12.0133 -18.9778 -58.6043 1.4004 2.4950 -81.5645 -20.3859 -23.5474 -157.7696 -142.3761 -59.9463 72.3199 -7.6757 10.4892 56.4578 -34.1406 59.5387 -149.7820 121.6306 51.5976 0.7021 -11.6700 -0.0718 4.2516 13.3228 0.4968 -28.1516 11.8578 -2.9831 -0.2366 25.0468 1.0653 -14.9946 -0.6053 0.0797 -20.8614 12.7845 -2.3629 -24.0708 -36.7075 8.0918 -2.4681 -6.5512 -41.2523
-0.0704 0.1332 -0.1682 -6.0800 0.3666 6.8941 2.2156 10.8254 0.2100 2.2156 10.8254 0.2100 2.2156 10.8254 0.2100 -4.6430 26.3296 3.7081 1.9481 12.9125 -24.2422 -56.7633 5.4613 10.0898 -76.0582 -9.2742 -11.8417 -134.5511 -107.3643 -59.3463 71.6302 -11.6038 16.0299 52.9824 -39.5391 71.5957 -141.7616 99.0664 44.2297 0.6705 -12.1177 -0.0712 2.9354 19.2029 0.4967 -28.9773 20.6278 -5.3847 -1.4691 31.3386 5.2338 -14.9470 -2.2583 0.2963 -21.4322 13.5936 -2.5842 -23.5605 -35.4015 7.6160 -1.6914 -4.7275 -39.3548
-0.0663 0.1165 -0.1915 -5.0066 0.3720 8.4930 1.2324 11.7098 0.1264 1.2324 11.7098 0.1264 1.2324 11.7098 0.1264 -4.4725 26.9719 3.5311 2.4053 12.4634 -27.1524 -54.0924 12.0509 23.3624 -68.9538 5.5347 8.0531 -111.4946 -67.9809 -49.3232 73.6897 -13.2554 17.6288 48.1528 -39.9749 78.2919 -138.5448 89.8032 41.3251 0.5984 -12.2515 -0.0642 3.0995 19.8592 0.5427 -28.2943 21.4041 -5.4546 -1.1727 31.0689 4.2169 -15.0268 -2.4416 0.3221 -21.0652 15.0855 -2.8206 -23.3844 -34.1492 7.2742 -1.8160 -4.9183 -40.5116
-0.0659 0.1056 -0.1914 -4.3847 0.3240 8.4469 0.9073 11.7027 0.0930 0.9073 11.7027 0.0930 0.9073 11.7027 0.0930 -4.3345 26.7687 3.4345 2.5487 12.4124 -28.0281 -52.9015 12.0763 24.0063 -68.0735 4.3348 6.4141 -107.8051 -60.9505 -46.4458 73.5057 -12.3693 16.5122 46.0122 -40.0199 81.2373 -140.3460 91.6831 40.7404 0.4387 -12.9292 -0.0497 3.3651 20.1842 0.5991 -27.6241 22.0429 -5.4828 -1.1152 31.6422 3.9341 -15.2443 -1.7093 0.2288 -20.7095 17.0811 -3.1436 -22.7903 -32.6983 6.7672 -1.8713 -4.8304 -42.3341
-0.0648 0.0983 -0.2064 -3.9130 0.3351 9.7846 0.6548 11.3952 0.0653 0.6548 11.3952 0.0653 0.6548 11.3952 0.0653 -4.3242 27.4323 3.3858 2.9823 13.9462 -29.4685 -52.0460 11.9355 24.1703 -66.8278 1.5388 2.3323 -107.1860 -55.4636 -42.3819 73.8229 -12.9658 17.2053 53.1980 -46.9311 81.8447 -145.8923 102.6517 41.9389 0.4006 -12.8948 -0.0453 3.2552 24.1515 0.6966 -27.0392 24.6741 -6.0205 -1.8279 36.4795 5.5428 -15.3032 -1.9751 0.2654 -20.5345 17.7331 -3.2372 -23.2087 -32.1450 6.7719 -1.9588 -4.9197 -43.3998
-0.0602 0.0985 -0.2102 -3.6284 0.3234 10.1820 0.5163 13.2977 0.0602 0.5163 13.2977 0.0602 0.5163 13.2977 0.0602 -4.8095 28.1218 3.7195 3.3463 14.4718 -31.0138 -51.7636 10.3075 21.0618 -65.7325 0.9003 1.3935 -106.4839 -54.9101 -42.4220 71.6320 -18.8164 25.8629 128.1897 -120.8368 81.1006 -155.7437 113.9693 36.5998 0.6562 -12.0704 -0.0694 3.0810 22.9616 0.6259 -27.1179 22.8742 -5.5865 -1.7821 34.1600 5.7954 -15.2617 -1.5029 0.2014 -20.5631 17.8893 -3.2708 -22.9461 -32.4503 6.7602 -3.1294 -8.1362 -42.0213
-0.0588 0.0983 -0.2119 -3.5179 0.3164 10.2762 0.3616 13.3311 0.0423 0.3616 13.3311 0.0423 0.3616 13.3311 0.0423 -4.7263 28.7764 3.6122 3.7939 15.2672 -32.6637 -50.6770 8.9412 18.7516 -64.8571 -1.1827 -1.8614 -107.4619 -57.5026 -43.8561 68.3726 -15.5268 22.6981 154.2180 -150.9561 82.9250 -145.4693 99.0846 40.0482 0.6907 -11.8463 -0.0717 3.0603 22.6165 0.6121 -27.2777 22.2278 -5.4580 -1.7783 33.4742 5.9087 -15.7178 -1.3259 0.1830 -20.3909 18.1057 -3.2827 -22.8261 -32.1733 6.6636 -3.4716 -8.9210 -42.4608
-0.0561 0.0978 -0.2173 -3.1553 0.3251 11.7619 0.0561 13.5169 0.0066 0.0561 13.5169 0.0066 0.0561 13.5169 0.0066 -4.1380 28.5624 3.1747 3.7199 15.0590 -32.4595 -48.5342 9.5899 21.0805 -62.0558 0.6750 1.1222 -98.6109 -47.4566 -41.4139 67.2232 -16.4386 24.5210 167.8596 -166.4732 83.7644 -141.7362 91.0564 38.9228 1.2755 -10.8517 -0.1212 2.7559 22.9241 0.5589 -27.2611 23.3075 -5.7263 -4.1635 34.4023 13.3939 -15.7020 -1.5649 0.2158 -20.3465 18.6595 -3.3773 -22.7324 -31.8960 6.5754 -2.9133 -8.2695 -38.7588
-0.0569 0.0945 -0.2118 -2.8334 0.3169 12.7619 -0.0170 12.7427 -0.0019 -0.0170 12.7427 -0.0019 -0.0170 12.7427 -0.0019 -3.9928 28.1130 3.0882 3.8169 15.9669 -32.2597 -48.5819 8.4746 18.6450 -60.3829 0.4588 0.7885 -87.4842 -37.1307 -38.6765 67.8172 -14.6712 21.6835 179.8250 -179.8082 84.7580 -139.0868 82.9318 36.4871 1.8341 -8.0609 -0.1292 2.2670 25.7217 0.5176 -26.6874 26.2500 -6.3312 -7.7138 40.8682 20.5133 -15.7320 -1.6517 0.2282 -20.4386 19.3163 -3.5145 -22.6058 -31.0454 6.3550 -1.8449 -5.4217 -37.5610
-0.0563 0.0920 -0.2135 -2.6093 0.2897 12.6692 -0.1840 12.7320 -0.0205 -0.1840 12.7320 -0.0205 -0.1840 12.7320 -0.0205 -3.6565 27.9875 2.8344 3.7126 16.5285 -31.3877 -48.5317 7.7964 17.1911 -59.8401 -0.2083 -0.3619 -90.1889 -40.3478 -40.2257 66.5169 -14.2728 21.6157 178.0045 -177.7871 84.0864 -139.7059 86.2236 37.9113 2.7660 -7.9430 -0.1921 1.5568 28.7402 0.3989 -27.0592 28.9954 -7.1206 -9.1980 46.3393 21.2898 -16.6288 -1.4800 0.2163 -20.0476 19.3282 -3.4481 -22.4786 -31.3235 6.3778 -2.0842 -5.6226 -40.6519
-0.0538 0.0921 -0.2169 -2.3650 0.2841 13.6974 -0.2161 12.7217 -0.0241 -0.2161 12.7217 -0.0241 -0.2161 12.7217 -0.0241 -3.5095 28.1193 2.7140 3.5805 16.5572 -30.7589 -47.8075 9.2574 20.7042 -59.4631 2.1762 3.8095 -91.5637 -37.9280 -36.9771 66.4710 -16.5363 25.0079 178.3995 -178.2342 84.3752 -142.3026 87.5024 36.1958 3.1718 -7.6456 -0.2120 2.0098 28.5060 0.5106 -26.9463 28.4257 -6.9450 -8.3277 43.7655 20.5473 -16.2234 -1.1552 0.1647 -20.3516 19.4996 -3.5331 -22.3425 -31.4010 6.3547 -1.3669 -4.2639 -35.5353
